<?xml version="1.0" standalone="no"?>
<!DOCTYPE svg PUBLIC "-//W3C//DTD SVG 1.1//EN" "http://www.w3.org/Graphics/SVG/1.1/DTD/svg11.dtd" >
<svg xmlns="http://www.w3.org/2000/svg">
<metadata>
Created by FontForge 20120731 at Fri Nov 11 02:32:42 2016
 By admin
</metadata>
<defs>
<font id="iconfont" horiz-adv-x="1024" >
  <font-face 
    font-family="iconfont"
    font-weight="500"
    font-stretch="normal"
    units-per-em="1024"
    panose-1="2 0 6 3 0 0 0 0 0 0"
    ascent="896"
    descent="-128"
    x-height="792"
    bbox="0 -212 1024 896"
    underline-thickness="0"
    underline-position="0"
    unicode-range="U+0078-E896"
  />
<missing-glyph 
 />
    <glyph glyph-name=".notdef" 
 />
    <glyph glyph-name=".notdef" 
 />
    <glyph glyph-name=".null" horiz-adv-x="0" 
 />
    <glyph glyph-name="nonmarkingreturn" horiz-adv-x="341" 
 />
    <glyph glyph-name="x" unicode="x" horiz-adv-x="1001" 
d="M281 543q-27 -1 -53 -1h-83q-18 0 -36.5 -6t-32.5 -18.5t-23 -32t-9 -45.5v-76h912v41q0 16 -0.5 30t-0.5 18q0 13 -5 29t-17 29.5t-31.5 22.5t-49.5 9h-133v-97h-438v97zM955 310v-52q0 -23 0.5 -52t0.5 -58t-10.5 -47.5t-26 -30t-33 -16t-31.5 -4.5q-14 -1 -29.5 -0.5
t-29.5 0.5h-32l-45 128h-439l-44 -128h-29h-34q-20 0 -45 1q-25 0 -41 9.5t-25.5 23t-13.5 29.5t-4 30v167h911zM163 247q-12 0 -21 -8.5t-9 -21.5t9 -21.5t21 -8.5q13 0 22 8.5t9 21.5t-9 21.5t-22 8.5zM316 123q-8 -26 -14 -48q-5 -19 -10.5 -37t-7.5 -25t-3 -15t1 -14.5
t9.5 -10.5t21.5 -4h37h67h81h80h64h36q23 0 34 12t2 38q-5 13 -9.5 30.5t-9.5 34.5q-5 19 -11 39h-368zM336 498v228q0 11 2.5 23t10 21.5t20.5 15.5t34 6h188q31 0 51.5 -14.5t20.5 -52.5v-227h-327z" />
    <glyph glyph-name="science" unicode="&#xe61c;" 
d="M315 589zM232 588.5q0 34.5 24 58.5t58.5 24t58.5 -24t24 -58.5t-24 -58.5t-58.5 -24t-58.5 24t-24 58.5zM844 597zM723 597.5q0 50.5 35.5 86t85.5 35.5t85.5 -35.5t35.5 -86t-35.5 -86t-85.5 -35.5t-85.5 35.5t-35.5 86zM181 23zM72 23.5q0 45.5 32 77.5t77.5 32
t77.5 -32t32 -77.5t-32 -77.5t-77.5 -32t-77.5 32t-32 77.5zM871 174zM776 174.5q0 39.5 28 67t67 27.5t66.5 -27.5t27.5 -67t-27.5 -67t-66.5 -27.5t-67 27.5t-28 67zM525 310zM362 309.5q0 67.5 48 115.5t115.5 48t115.5 -48t48 -115.5t-48 -115.5t-115.5 -48t-115.5 48
t-48 115.5zM355 516q2 -1 6.5 -4.5t15 -13t18 -19t14 -23.5t5.5 -27l60 36q-2 1 -6 2.5t-15.5 9t-22 17t-24 27t-23.5 38.5zM738 559q-85 -123 -110 -136l31 -36q3 4 8 10t20.5 22t31.5 29.5t38 27t43 18.5zM375 269q0 -3 -0.5 -9t-7.5 -24t-20.5 -36t-43.5 -42.5t-71 -46.5
l46 -59q2 4 7.5 12.5t23 30t36.5 38.5t48.5 33t58.5 20zM628 238h12.5t28.5 -4t39.5 -12.5t39 -28t32.5 -47.5l20 80q-11 1 -28.5 4t-52.5 14t-48 25z" />
    <glyph glyph-name="business" unicode="&#xe612;" 
d="M303 623q-30 0 -51.5 -21t-21.5 -51t21.5 -51.5t51.5 -21.5q31 0 52.5 21.5t21.5 51.5t-21.5 51t-52.5 21zM383 235l-1 -23v-1l15 -265h-70l-12 226h-29l-14 -226h-66l10 265l-5 107l-60 -85l-29 24l88 200h50l45 -69l49 69h39l15 38h93l-22 -19l22 -21l-28 -150l50 -41
l47 41l-30 150l24 21l-22 19h88l16 -38h44l45 -60l49 60h42l76 -187l-31 -27l-53 88l-6 -119v-1l15 -265h-70l-12 226h-29l-14 -226h-66l10 265l-1 19l-27 -23l13 -317h-78l-18 270h-35l-14 -270h-83l18 317zM733 623q-30 0 -51.5 -21t-21.5 -51t21.5 -51.5t51.5 -21.5
q31 0 52.5 21.5t21.5 51.5t-21.5 51t-52.5 21zM519 710q-38 0 -64.5 -26.5t-26.5 -64t26.5 -64t64.5 -26.5t64.5 26.5t26.5 64t-26.5 64t-64.5 26.5z" />
    <glyph glyph-name="mathematics" unicode="&#xe60a;" 
d="M937 812h-850q-36 0 -61.5 -25.5t-25.5 -61.5v-850q0 -36 25.5 -61.5t61.5 -25.5h850q36 0 61.5 25.5t25.5 61.5v850q0 36 -25.5 61.5t-61.5 25.5zM961 -125q0 -10 -7 -17t-17 -7h-850q-10 0 -17 7t-7 17v850q0 10 7 17t17 7h850q10 0 17 -7t7 -17v-850zM416 556h-64v64
q0 13 -9.5 22.5t-22.5 9.5t-22.5 -9.5t-9.5 -22.5v-64h-64q-13 0 -22.5 -9.5t-9.5 -22.5t9.5 -22.5t22.5 -9.5h64v-64q0 -13 9.5 -22.5t22.5 -9.5t22.5 9.5t9.5 22.5v64h64q13 0 22.5 9.5t9.5 22.5t-9.5 22.5t-22.5 9.5zM800 556h-192q-13 0 -22.5 -9.5t-9.5 -22.5
t9.5 -22.5t22.5 -9.5h192q13 0 22.5 9.5t9.5 22.5t-9.5 22.5t-22.5 9.5zM800 76h-192q-13 0 -22.5 -9.5t-9.5 -22.5t9.5 -22.5t22.5 -9.5h192q13 0 22.5 9.5t9.5 22.5t-9.5 22.5t-22.5 9.5zM800 204h-192q-13 0 -22.5 -9.5t-9.5 -22.5t9.5 -22.5t22.5 -9.5h192
q13 0 22.5 9.5t9.5 22.5t-9.5 22.5t-22.5 9.5zM365 108l46 45q9 10 9 23t-9.5 22.5t-22.5 9.5t-23 -9l-45 -46l-45 46q-10 9 -23 9t-22.5 -9.5t-9.5 -22.5t9 -23l46 -45l-46 -45q-9 -10 -9 -23t9.5 -22.5t22.5 -9.5t23 9l45 46l45 -46q10 -9 23 -9t22.5 9.5t9.5 22.5t-9 23z
" />
    <glyph glyph-name="igenetics" unicode="&#xe80a;" 
d="M554 776q23 0 39 16.5t16 39t-16 39t-39 16.5t-39 -16.5t-16 -39t16 -39t39 -16.5zM254 776q-23 0 -39.5 16.5t-16.5 39.5t16.5 39t39.5 16t39.5 -16t16.5 -39t-16.5 -39.5t-39.5 -16.5zM867 602q0 -16 -11.5 -27.5t-27.5 -11.5t-27.5 11.5t-11.5 27.5t11.5 27t27.5 11
t27.5 -11t11.5 -27zM884 544h-104l-35 3l-44 152q-5 18 -14 30.5t-18 18t-17.5 8.5t-14.5 3h-5h-142h-5.5t-13.5 -3t-18 -8.5t-17.5 -18t-14.5 -30.5l-21 -75l-22 75q-8 28 -25 43t-31 16l-13 1h-110h-5.5t-13.5 -3t-18 -8.5t-17.5 -18t-14.5 -30.5l-44 -153q-3 -11 2 -18.5
t14 -10.5q10 -3 18.5 1t10.5 13l43 150h21l-63 -260h56v-184q0 -11 8 -19t19.5 -8t19.5 8t8 19v184h23v-184q0 -11 8 -19t19.5 -8t19.5 8t8 19v184h55l-63 260h21l43 -148q1 -4 3 -7q7 -10 20 -10q12 0 19 10q3 3 4 7l42 148h19v-439q0 -13 9.5 -22.5t23 -9.5t23 9.5
t9.5 22.5v250h24v-250q0 -13 9.5 -22.5t23 -9.5t23 9.5t9.5 22.5v439h21l41 -150q3 -11 16 -14h0.5h0.5q7 -2 59 -17v-272q0 -9 6.5 -16t16 -7t16 7t6.5 16v136h18v-136q0 -9 6.5 -16t16 -7t16.5 7t7 16v254h17v-86q0 -7 5 -12t12 -5t12 5t5 12v98q0 20 -15.5 35t-36.5 15v0
zM766 5q-13 9 -32 25q-21 17 -28 22q-49 38 -90 60.5t-84 26.5q-9 1 -16 1q-3 0 -16 -1q-43 -4 -84.5 -26.5t-90.5 -61.5l6 -4q3 -2 6.5 -5t7.5 -6t6 -5q48 38 86.5 57.5t78.5 19.5t78.5 -19.5t86.5 -56.5q13 -11 33 -26q20 -16 26 -21q54 -43 99 -66t92 -23q38 0 78 17v35
q-41 -20 -78 -20q-39 0 -78 20t-87 57zM740 51q1 0 3 -1.5t3 -2.5q3 -3 10 -8.5t10 -7.5q34 26 59 42v-85q17 -12 31 -19v121q31 14 60 17v-157q9 -1 15 -1q7 0 16 1v157q30 -3 62 -18v34q-40 17 -77 17q-48 0 -93 -23t-99 -66v0zM291 -16q0 1 -2.5 2.5t-3.5 2.5
q-4 3 -10.5 8.5t-8.5 7.5q-48 -38 -87 -57.5t-78 -19.5q-37 0 -78 21v-35q40 -18 78 -18q47 0 91.5 23t98.5 65v0zM85 -50q9 -1 15.5 -1t15.5 1v157q29 -3 60 -17v-1.5v-1.5v-117q14 7 31 18v85q31 -19 91 -67q34 -27 53 -41t49.5 -33t58.5 -27.5t57 -8.5q47 0 91.5 23
t98.5 65l-6 5q-3 3 -9.5 8t-9.5 7q-33 -25 -58 -40v83q-17 11 -32 19v-117q0 -1 0.5 -1.5l0.5 -0.5q-31 -15 -60 -18v157q-9 1 -17 1q-5 0 -15 -1v-157q-29 3 -60 17l0.5 1t0.5 2v118q-14 -8 -32 -19v-85q-31 19 -91 67q-34 27 -53 41t-49.5 33t-58.5 27.5t-57 8.5
q-37 0 -77 -16v-34q33 14 62 17v-157v0v0z" />
    <glyph glyph-name="physics" unicode="&#xe68d;" 
d="M1008 230q0 -29 -21.5 -50t-50.5 -21h-211q-29 0 -50.5 21t-21.5 50h29l128 425h-224v-708l279 -71v-72h-708v72l248 71v708h-191l128 -425h29q0 -29 -21.5 -50t-50.5 -21h-211q-29 0 -50.5 21t-21.5 50h29l128 425h-85v34l358 62q6 20 24.5 32.5t43.5 12.5
q21 0 39.5 -12.5t24.5 -32.5l358 -62v-34h-85l128 -425h29zM192 594l-112 -364h225zM514 655q15 0 23 10.5t8 24t-8 24t-23 10.5q-19 0 -28 -10.5t-9 -24t9 -24t28 -10.5zM944 230l-112 364l-113 -364h225v0z" />
    <glyph glyph-name="environment" unicode="&#xe625;" 
d="M146 405l366 350l366 -350h-220l366 -350h-366v-71v-139h-292v139v70h-366l366 351h-220z" />
    <glyph glyph-name="medicine" unicode="&#xe66a;" 
d="M810 598q-54 54 -130 54t-130 -54l-336 -336q-54 -54 -54 -130t54 -130t130 -54t130 54l336 336q54 54 54 130t-54 130zM783 365l-156 -156l-206 206l156 156q43 43 103 43q61 0 103.5 -43t42.5 -103t-43 -103z" />
    <glyph glyph-name="biology" unicode="&#xe606;" 
d="M948 514q-1 10 -10 16t-20 6q-10 0 -17 -6q-5 -4 -7.5 -15.5t-6.5 -18.5l-3 -5l-5 3q-42 25 -103 61q-131 77 -196 118l-8 5l8 5q2 1 7 4q20 12 22 23q2 14 -7 24q-8 10 -21 10q-4 0 -8 -1q-17 -5 -52 -32l-9 -6q-98 -73 -105 -169q-4 -52 17 -109q4 -11 13 -28
q12 -23 15 -36l2 -8h-8q-6 1 -22.5 1.5t-25.5 1.5q-41 4 -91 4q-36 0 -81 -11t-72 -36q-37 -35 -62 -108q-7 -21 -12.5 -50t-6.5 -58.5t8 -42.5q2 -2 5.5 -12.5t7.5 -19t8 -8.5v0q25 0 30 86v40l9 -4q35 -19 122 -68l41 -23q28 -16 56 -30q68 -36 107 -61l6 -6l-5 -7
q-18 -17 -26 -21q-30 -15 -29 -44q0 -13 8 -30.5t19 -17.5h1q6 0 16 9.5t21 22t17 16.5q10 7 26 31t21 29q50 54 59 115q6 42 -11 124q-4 17 -6 26l-51 6l-7 1q1 -10 6 -32q8 -35 10 -55l1 -13l-10 8q-23 16 -82 56q-109 76 -160 113l-3 1q-13 7 -11 16l1 5h5q14 1 27 1
q60 0 180 -17q123 -17 187 -17q22 0 45 2q61 4 94 21q58 29 105 127q32 64 27 88zM518 2q-12 -23 -26 -30l-3 -1l-3 1q-56 33 -168 94q-120 64 -177 99l-4 2l1 3q2 18 13 46q3 8 5 13l2 7l6 -4q69 -41 202 -127q100 -64 150 -95l5 -3l-3 -5v0zM285 264l27 -21q21 -14 69 -47
q116 -79 163 -116l2 -1v-3q1 -14 -5 -34l-3 -9l-2 -7l-6 3q-23 11 -63 38q-17 11 -26 17l-106 68q-102 64 -157 99l-5 3l3 5q26 40 52 40h2h1h1q19 -8 53 -35zM729 335q-22 -3 -47 -3q-46 0 -131 11l-16 2l-4 1q-21 21 -25 28l-15 7q-4 6 -21 30.5t-24 37t-15 36.5t-8 48v18
l30 -7q47 -35 145 -102.5t134 -96.5l11 -9zM826 385q-5 -13 -16 -22t-29 -20l-4 -2l-3 3q-41 30 -130 98q-111 86 -168 127l-5 3l3 5q2 3 5 10q8 18 17 23l3 3l3 -3q54 -35 162 -109q105 -72 160 -108l4 -3zM877 464q-4 -12 -16 -33q-8 -13 -11 -20l-3 -7l-6 4
q-66 43 -175 118q-79 54 -147 99l-6 3l5 3q4 4 14.5 6t16.5 15h6q34 -27 97 -58.5t77 -40.5q27 -16 77 -43.5t69 -38.5l4 -2z" />
    <glyph glyph-name="icon3" unicode="&#xe607;" 
d="M511.5 738q-89.5 0 -171 -35t-140.5 -94t-93.5 -140.5t-34.5 -170.5t34.5 -170.5t93.5 -140.5t140.5 -93.5t171 -34.5t170.5 34.5t140 93.5t94 140.5t35 170.5t-35 170.5t-94 140.5t-140 94t-170.5 35zM549 706q1 1 3 2l7 3.5t9.5 3.5t9.5 1t8 -3t17 -5t44.5 -12
t67.5 -33l-1 -1l-3 -3t-4 -3.5t-4.5 -4t-4.5 -4t-3.5 -2.5t-2.5 -1q9 -17 15 -26l8 -11l-6 -9l6 -2q-3 1 -5.5 -3.5t-6 -10t-7.5 -6.5q-5 -1 -2 -12t2 -12q-1 -4 -1 -10.5t1 -19t0 -19.5q-1 -8 -3 -8.5t-6 3.5t-7 5q-20 5 -22 12q-4 18 0 27v4.5t-2.5 4.5t-4.5 4.5t-5 4.5
l-4 4q-2 4 -19 2t-18 -2q-8 2 -8 27q0 4 2.5 5t6.5 0.5t8 -2t9.5 -2.5t8.5 -1q6 1 9.5 9.5t4.5 16.5v8v27q-9 4 2 8q-27 6 -33 -8q-3 -5 -5.5 -9.5t-4 -8t-2.5 -9.5q0 -4 -3 -5.5t-7.5 -1t-8 1.5t-8 3t-5.5 2q-2 0 -4.5 2.5l-5.5 5.5l-6 6t-4 5l-2 2l8 19l-8 19v22zM297 558
l2 3t3.5 5.5t5 6.5t6.5 6t8 4.5t9 2t9 -2.5q11 -3 19.5 -0.5t12.5 7.5l5 5l5.5 5.5t10.5 10t12.5 10.5t5.5 2l2 -4q0 1 4 3q15 8 24 -1q2 -2 3 -6q1 -7 6.5 -13t10.5 -8l5 -3q-1 -2 -3 -5.5t-4 -12.5t-1 -15q1 -4 6.5 -13.5t1.5 -16.5q-4 -8 -12.5 -15t-9.5 -9
q-2 -3 -9.5 2.5t-14.5 14t-9 13.5q-2 8 -11 13t-18 3q-43 -11 -50 -8q-2 1 -13 3t-18.5 5.5t-3.5 7.5zM725 88q-10 -26 -29 -60.5t-30 -45.5q-7 -7 -24.5 -29.5t-25.5 -28.5q-4 -3 -13 -17t-19 -13q-12 1 -24.5 27t-8.5 37q4 12 -88 35v0q-2 0 -4.5 0.5t-10 5.5t-13.5 13
t-12 24.5t-8 37.5q-2 19 -3 30q-57 25 -88 18q-20 -5 -41 4.5t-29 10.5l-50 46l-47 59q-30 42 -25 51q5 7 7 21.5t3 30t2 17.5q0 5 -6.5 39.5t-6 38t-2.5 13t-6 17.5l-3 8q30 64 35 64q1 0 15 -27.5t25 -28.5q15 -1 41 1.5t31 8.5q2 1 4.5 4.5t4 5t4 3.5t5 3t4.5 1t5.5 1
t7 1t9.5 -3q28 -13 37 -26q2 -2 2.5 -10.5t6 -13.5t20.5 -5q8 0 16 0.5t10.5 1t5.5 -1t3.5 -4.5t2.5 -10q3 -13 4.5 -28.5t0 -30.5t-8.5 -16q-11 -3 -32.5 -29.5t-19.5 -37.5q7 -33 -3 -54q-5 -12 -11.5 -15.5t-23.5 -2.5q-7 0 -17 2.5t-15.5 3t-11 -1.5t-7.5 -9
q-3 -9 -5.5 -18t-4 -19.5t1.5 -16t11 -4.5q35 11 48 0q5 -5 29 -16t44 -20l21 -10q3 4 8.5 9t24.5 16t39.5 16.5t52 3.5t63.5 -16l20 -13l31 7q5 2 12.5 4t22.5 4.5t21 0.5l15 -3v7v0q12 -34 0 -68v0zM912 271q-10 14 -10 29q0 7 -5.5 15t-5.5 18q0 11 -10.5 16t-13.5 9
q-6 6 -8.5 5t-7 -5.5t-7.5 -5.5t-4.5 -4.5t-4 -11.5t-5.5 -14q-5 -10 -17.5 -17t-17.5 -4q-5 2 -18 13.5t-14 15.5q0 1 -16.5 17.5t-16.5 20.5q2 13 -15 56q-3 7 -3 26.5t2 36.5l1 16q-3 1 9 9q7 4 28 15q38 22 38 26q-2 1 -4.5 5t-4.5 9t-3.5 11t-3 11.5t-2 10.5t-1 8
l-0.5 3l47 -24q20 -11 46.5 -64.5t42.5 -101.5l16 -48v-55z" />
    <glyph glyph-name="machineengineerno" unicode="&#xe6d8;" 
d="M276 669q-1 11 -0.5 31.5t-0.5 31.5h-1q-2 1 -5 1h-154h-5h-1v1v75v2v1h2h585v-3v-3v-597v-7q-2 0 -7 -0.5t-8 -1.5q-1 0 -6.5 -1t-7.5 -2q-7 -1 -15 -4q-7 -2 -13.5 -4.5t-14.5 -5.5q-1 -1 -13 -7v2v5v543q0 5 -1 6h-1q-28 0 -62.5 0.5t-61.5 0.5h-62q-1 -1 -1 -4v-22
v-33v-5h-2.5h-2.5h-136h-5zM716 186q83 0 141 -58.5t58 -140.5t-58 -140.5t-140 -58.5q-83 0 -141.5 58.5t-58.5 141.5q1 82 59 140t140 58zM596 81l2 -4q3 -4 9.5 -13t9.5 -14l3 -3q-2 -2 -7 -15t-7 -19l-3 -1q-6 -1 -17.5 -3t-18.5 -3l-2 -1v-2v-34v-1v0q32 -6 40 -7
q11 -20 14 -34q-4 -6 -5 -9q-3 -3 -6 -8l-6 -8l-6 -9l11 -11t15 -16l4 3q5 3 14 9.5t13 9.5l3 2q14 -5 34 -14q1 -2 1 -3q1 -4 3 -16t3 -19l1 -2h35h2q6 33 7 40q20 11 34 14q5 -3 7 -4q1 -1 3.5 -3t3.5 -2q3 -2 6 -5q7 -4 7 -5l7 -4l2 1q13 14 23 24l1 2q-3 5 -11 16
t-12 17q7 18 14 34q6 1 19.5 3.5t20.5 3.5q0 1 1 10v9t-1 10v9q-6 1 -20 3.5t-20 3.5q-2 3 -7 15.5t-7 18.5l2 3q2 3 9 13t11 15l1 3l-11 11l-15 15l-4 -2q-4 -3 -13 -9.5t-14 -9.5l-3 -3q-7 3 -34 15q-1 6 -3.5 19.5t-3.5 20.5h-3h-33h-2q-1 -6 -3.5 -19.5t-3.5 -21.5
q-11 -4 -34 -14l-3 3q-3 2 -12.5 9t-15.5 10l-3 2zM282 279v-3v-59q0 -3 2 -6q4 -3 28 -27l14 -14q2 -2 2 -5v-15v-2l-3 -1h-12.5h-13.5q-3 0 -5 3q-6 5 -38 36q-17 16 -19 18t-2 5v88v3q13 6 38.5 17.5t37.5 16.5v3v3v214q0 6 -2 10q-7 16 -32 68l-1 4h2h3h136h4q1 -1 0 -2
q-4 -9 -11 -25q-18 -37 -22 -46q-2 -3 -2 -7v-218l1 -4q13 -6 38.5 -17.5t36.5 -16.5l1 -1v0v-2v-89v-2q-1 -1 -4.5 -4t-4.5 -5q-40 -38 -49 -47q-4 -3 -8 -3h-23h-4q-1 6 0 21l46 46v66h-2h-131zM109 -40v66l2 1q2 2 12 7t15 8q3 1 5 1h3h355h6v-2q-5 -17 -6 -35
q-2 -21 0 -41v-3v-1l-2 -1h-3h-381h-6zM640.5 -13q-0.5 -31 21.5 -53.5t54 -22.5t54 22t22 54q0 31 -22 53t-54 23q-31 0 -53 -22.5t-22.5 -53.5z" />
    <glyph glyph-name="dongzhiwu" unicode="&#xe67b;" 
d="M219 683q2 3 4.5 7t12 15t20.5 19.5t29.5 15.5t39.5 8q15 0 29 -3.5t24 -9.5t18.5 -13t14.5 -14t10 -13t6 -9.5t2 -2.5t9 3.5t25 2.5t33.5 -4.5t37 -21t34.5 -43.5q11 -26 9 -53.5t-7.5 -46.5t-9.5 -22q10 -14 15.5 -35t2.5 -49.5t-18 -53.5q-14 -21 -33.5 -34.5t-37 -18
t-33.5 -5.5t-25 0l-10 1l-48 -110v-341h-85l1 331l-60 123q-118 -13 -148 103q-9 47 18 90q-45 63 -6 129q42 73 126 55v0zM684 392q-8 7 -12 0q1 -55 61 -70l98 -3l2 -19h-59q1 -9 5.5 -15t10 -9t10.5 -4t9 -1t4 -1q3 -1 4 -4q-10 -13 -30 -36t-30 -37h-213l-64 -64l40 -79
l-40 -49v-149h21v149h43l42 -149h22l-43 171l21 21h150h21l-43 -192h22l42 149v0l43 -149h21l-49 187l-1 12l21 15l29 149l107 63v22h-97v19q35 9 48 31q1 3 -2.5 8.5t-10.5 2.5q-18 -13 -33.5 -19.5t-26.5 -6t-19.5 3.5t-14.5 10t-9.5 12.5t-6 12t-3.5 7.5q-1 2 -6.5 2
t-7.5 -3q-6 -7 15 -37q2 -3 -2 -5q-21 -2 -39.5 1t-34 16.5t-15.5 36.5v0zM287 289l-3 -3l44 -64q2 -2 6 0l38 63q1 4 -3 5q-8 -3 -19 -4t-21.5 -0.5t-19.5 1t-15.5 1.5z" />
    <glyph glyph-name="xianghongai-pku" unicode="&#xe621;" 
d="M512.5 852q-95.5 0 -182.5 -37t-150 -100t-100 -150t-37 -182.5t37 -182t100 -149.5t150 -100t182.5 -37t182 37t149.5 100t100 149.5t37 182t-37 182.5t-100 150t-149.5 100t-182 37zM512.5 -67q-91.5 0 -175 35.5t-143.5 96t-96 143.5t-36 174.5t36 175t96 143.5
t143.5 96t175 36t174.5 -36t143.5 -96t96 -143.5t35.5 -175t-35.5 -174.5t-96 -143.5t-143.5 -96t-174.5 -35.5zM569 21q-22 -1 -24 -22q0 -20 20 -21q3 -1 5 0q3 1 5 2q-7 -23 -29 -26v-2q45 4 48 39q0 28 -25 30zM576 -13v-3q-1 -2 -5 -2q-10 -1 -9 22q-1 14 7 14
q4 0 6 -5t2 -21q0 -1 -1 -5v0zM467 -7q14 4 14 13q-1 13 -20 14q-22 0 -23 -16q-1 -11 14 -18q-16 -4 -16 -15q1 -15 22 -16q22 0 24 18q0 11 -15 20v0zM451 10q1 7 9 7t9 -11q0 -6 -5 -11q-13 7 -13 15v0zM458 -42q-9 0 -9 13v0v0v0q-1 7 4 12l1 1q14 -7 13 -16
q0 -11 -9 -10zM739 672l41 -38l15 12l-2 1q-16 -7 -29 5q-7 6 -2 10l14 16q11 -9 3 -21l1 -1l21 22l-2 2q-11 -11 -20 0l14 16q2 4 8 -2q15 -13 5 -25l2 -2l13 13l-41 37l-1 -1q6 -6 1 -11l-29 -32q-4 -6 -11 1zM289 670q12 13 14 22l-9 8q-7 6 0 12l-2 2l-22 -24l1 -1
q7 7 12 2l7 -7q5 -5 -2 -12q-13 -13 -35 8t-9 34q10 9 29 2l2 2l-16 15l-2 -1q2 -5 0 -6q-1 -1 -4 -3q-8 -4 -12 -7q-21 -24 1 -48q24 -21 47 2zM159 608l35 -27q7 -4 2 -11l1 -2l13 17l-2 2q-6 -8 -13 -2l-29 23l64 4l2 2l-44 32q-6 4 -2 11l-1 1l-12 -16l1 -1q6 7 13 1
l23 -17l-51 -2l-12 -17l2 -1q1 2 10 3zM122 530l41 -16q6 -2 3 -11l2 -1l12 31l-2 1q-3 -9 -10 -6l-41 16q-6 2 -3 10v1l-2 1l-11 -31l2 -1q3 8 9 6zM97 415l44 -2q6 0 6 -9h2l2 32h-2q-1 -9 -8 -8l-17 1l-2 2l21 17q3 2 4 2q3 0 2 -8h2l2 32h-2v-1q-1 -3 -3 -4l-36 -27
q-21 23 -19 32h-2l-2 -27h3q0 8 3 8q2 0 5 -4l19 -22l-20 1q-9 0 -8 9h-2l-2 -31l2 -1q1 9 8 8v0zM149 308h2l-1 55l-19 3v-2q17 -7 17 -25q1 -9 -5 -8l-22 -1q-1 14 13 16v3l-30 -2v-2q15 0 14 -15l-21 -1q-5 0 -5 7q-1 20 15 22v3l-18 -1l1 -54h2q0 8 7 8l43 2q7 1 7 -8z
M169 255q4 -9 -6 -11l-16 -6q-6 17 -11 21q-8 6 -17 3q-15 -6 -8 -29l11 -29l2 1q-3 8 5 10l40 15q5 2 8 0v-1q1 0 3 -4l2 1l-11 30zM120 228q-3 -1 -5 3q-4 11 10 16q15 6 19 -10zM677 25q11 10 7 18q-7 11 -23 4q-20 -10 -15 -25q4 -9 21 -9q-13 -11 -8 -21q7 -13 26 -5
q20 10 14 27q-5 10 -22 11zM656 34q-2 6 4 10q8 3 13 -7q3 -5 1 -11q-15 0 -18 8v0zM684 -11q-8 -3 -14 8q-3 6 -1 13v2q16 -1 19 -9q5 -10 -4 -14zM373 48l-2 1l-26 1l-1 -2q5 -1 8 -2t0 -8l-16 -33q-3 -10 -15 -3l-1 -2l33 -16l1 2q-11 4 -6 12zM937 440h-2q0 -9 -6 -9
l-43 -1q-6 -1 -7 9h-2l2 -33h2q-1 10 6 9l43 1q6 0 6 -9h1h2zM914 255l-35 -6l-12 6q-9 2 -5 12l-2 1l-12 -33l2 -1q3 10 11 5l16 -6l20 -29q2 -3 1 -7v-1l2 -1l8 21l-2 1q-3 -8 -7 -6q-3 1 -6 6l-13 17l24 3q1 1 2 1h4q3 0 0 -9l2 -1l12 32h-2q-3 -4 -8 -5zM876 319v0v0z
M919 360q15 -2 14 -19l-47 2q-9 -1 -8 10h-2l-2 -34h2q0 11 9 9l47 -3q0 -16 -16 -17v-3l18 -1l2 57l-17 2v-3zM873 494q-10 0 -12 10q-2 14 16 22v2l-21 -3v-3q3 0 3 -2t-1 -4q0 -6 1 -12q4 -20 22 -19q10 2 15 12l4 14q3 11 9 11q8 1 10 -8q1 -13 -14 -20l1 -3l19 3v3
q-4 0 -4 2v5q2 6 1 10q-3 19 -21 17q-12 -1 -17 -18l-2 -7q-2 -11 -9 -12zM806 606l-2 -1l19 -26l1 1q-6 8 3 12l15 11l1 -2l-12 -33l11 -16l2 1q-1 2 -1 4l11 32q12 -10 22 -2q13 9 -2 31l-18 25l-2 -2q5 -6 -3 -12l-33 -24q-8 -7 -12 1zM864 619v0q3 3 6 -2q7 -10 -4 -18
q-12 -10 -22 6zM624 735q-10 1 -8 8l8 42q1 6 10 5h1v2l-33 5v-2q8 -1 7 -8l-8 -42q-1 -6 -10 -5l-1 -2l33 -5zM483 750v-2h23v2q-10 0 -9 9v36l46 -47h2v52q-1 6 8 7v2h-22v-2q5 0 7.5 -2.5t2.5 -6.5v-27l-36 37h-22v-2q2 0 9 -7v-42q1 -7 -9 -7zM682 706l3 -2l44 35
q6 4 12 2l1 1l-18 11l-1 -2q7 -5 5 -8l-4 -4q-1 0 -1 -1l-25 -19l3 31q0 6 1 8q1 4 9 -1l1 2l-29 16l-1 -1q5 -4 5 -10zM380 780l7 -29q2 -11 11 -14q8 -3 21 -1q13 3 18 9q4 6 1 18l-7 28q-2 7 6 9v2l-22 -5l1 -2q10 2 12 -6l6 -27q5 -18 -13 -22q-15 -3 -18 14l-7 29
q-4 8 7 10v2l-34 -7l1 -2q9 2 10 -6zM512 729v0q-94 0 -173.5 -46.5t-126 -126t-46.5 -173.5t46.5 -173.5t126 -126t173.5 -46.5t173.5 46.5t126 126t46.5 173.5t-46.5 173.5t-126 126t-173.5 46.5zM512 47q-91 0 -168 45t-122 122.5t-45 168.5t45 168t122 122t168 45v0
q91 0 168.5 -45t122.5 -122t45 -168t-45 -168.5t-122.5 -122.5t-168.5 -45zM512 697q-130 0 -222 -92t-92 -222t92 -222.5t222 -92.5t222.5 92.5t92.5 222.5t-92.5 222t-222.5 92zM259 324q21 30 40 52t53.5 50t75.5 45q6 3 12 4v59q-25 -7 -50 -19.5t-41 -23.5t-44 -33
q-11 -8 -23 -2t-13.5 18.5t11.5 25.5q73 58 158 81q1 1 2 1v35q0 10 7.5 17t18 7t17.5 -7t7 -17v-159q0 -10 -7 -17t-18 -7h-4q-30 -11 -55 -27t-46.5 -38t-34 -37.5t-31.5 -41.5q-8 -10 -21.5 -7.5t-18 14t4.5 27.5zM668 191q-2 4 -9 18.5t-9.5 19.5t-9.5 18t-12 19t-13 17
t-15.5 17t-17.5 13.5t-21.5 13t-23.5 8.5v-47v-1q3 -6 22.5 -19.5t27.5 -24.5q19 -30 38 -78q10 -25 -12 -37q-19 -10 -28 5l-2 4q-9 26 -14 38.5t-13.5 28.5t-19 23.5t-24.5 9.5v0q-14 -2 -24.5 -9.5t-19 -23.5t-13.5 -28.5t-14 -38.5q-6 -18 -26 -11q-22 8 -18 31l2 8
q19 48 39 78q7 11 26.5 24.5t22.5 18.5v49q-14 -5 -27 -12t-22 -12.5t-19 -18t-15 -18t-14.5 -21.5t-11.5 -19.5t-11 -22.5t-9 -20q-9 -17 -30 -8q-22 11 -14 33q1 3 3 5q3 7 13.5 26t16.5 29t19 28t25.5 29t32.5 24t43 22q11 5 20 4v18q0 10 7.5 17t17.5 7t17.5 -7t7.5 -17
v-18q10 1 22 -4q23 -9 43 -22t32.5 -24t25.5 -29t19 -28t16 -29.5t14 -25.5q13 -22 -8 -36q-18 -12 -30 2q-2 2 -3 4zM730 290q-18 26 -31 41.5t-34.5 37.5t-46.5 38t-54 27h-5v0q-10 0 -17.5 7t-7.5 17v159q0 10 7.5 17t17.5 7v0q10 0 17.5 -7t7.5 -17v-35q2 0 3 -1
q85 -23 157 -81q14 -11 12 -25t-13.5 -19t-23.5 2q-28 22 -44 33t-40.5 23.5t-50.5 19.5v-59q6 -1 13 -4q40 -17 75 -45t53.5 -50t40.5 -52q10 -15 4 -28t-18 -14t-22 8z" />
    <glyph glyph-name="socialcontant-alt" unicode="&#xe624;" 
d="M933 -24h-434l77 264q-71 36 -113.5 105t-42.5 151q0 118 84 202t202.5 84t202.5 -84t84 -202q0 -78 -38 -144t-104 -105l82 -271v0zM559 22h312l-77 249l18 9q63 31 99 89t36 127q0 99 -70.5 169.5t-170 70.5t-170.5 -70.5t-71 -169.5q0 -73 40.5 -133.5t106.5 -88.5
l20 -9l-73 -243v0zM374 -24h-301l50 175q-45 25 -72 70t-27 97q0 80 56 136t136 56t136 -56t56 -136q0 -50 -24 -93t-67 -69zM134 22h178l-48 155l18 9q38 19 60 54t22 77q0 61 -42.5 103.5t-103.5 42.5q-60 0 -104 -42t-44 -103q0 -44 24.5 -80.5t64.5 -53.5l20 -9
l-45 -153v0zM202.5 540q-74.5 0 -128 38.5t-53.5 92t53.5 92.5t128.5 39t128.5 -38.5t53.5 -92t-54 -92.5t-128.5 -39zM202.5 764q-58.5 0 -101.5 -28t-43 -66t43 -66t101.5 -28t101.5 28t43 66t-43 66t-101.5 28zM120 665.5q0 -7.5 5 -13t12.5 -5.5t13 5.5t5.5 13
t-5.5 12.5t-13 5t-12.5 -5t-5 -12.5zM185 665.5q0 -7.5 5 -13t12.5 -5.5t13 5.5t5.5 13t-5.5 12.5t-13 5t-12.5 -5t-5 -12.5zM250 665.5q0 -7.5 5 -13t12.5 -5.5t13 5.5t5.5 13t-5.5 12.5t-13 5t-12.5 -5t-5 -12.5zM352 633l58 -45l-72 2z" />
    <glyph glyph-name="jindu" unicode="&#xe896;" 
d="M833 73q-27 0 -62 -25l-130 47l132 48q33 -21 62 -21q31 0 41 32q2 7 2 15q0 40 -53 43q21 22 21 42q0 22 -22 36q-12 6 -24 6q-44 0 -59 -69l-229 -85l-229 83q-15 71 -59 71q-12 0 -24 -6q-21 -14 -21 -36q0 -20 21 -42q-54 -3 -54 -43q0 -8 2 -15q11 -32 41 -32
q29 0 62 21l133 -48l-131 -46q-34 24 -61 24q-31 0 -44 -32q-2 -7 -2 -15q0 -41 54 -44q-21 -21 -21 -42t21 -36q14 -8 26 -8q41 0 58 69l228 83l228 -83q17 -69 58 -69q12 0 26 8q22 15 22 36t-21 42q53 3 53 44q0 8 -2 15q-12 32 -43 32zM202 397q54 -62 152 -90v-15
q0 -27 18.5 -45.5t45.5 -20.5q28 -2 42 10q22 -16 48 -16q25 0 45 15q14 -11 40 -9q27 3 46 21t19 45v11q105 27 163 92q56 61 56 145q0 18 -4 39q-20 125 -116 206q-100 87 -245 87t-245 -86q-96 -82 -115 -207q-4 -20 -4 -39q0 -82 54 -143v0zM588 647.5q29 33.5 70 33.5
q42 0 70.5 -33.5t28.5 -81t-28.5 -81.5t-70.5 -34q-41 0 -70 34t-29 81.5t29 81zM484 424.5q14 18.5 28 18.5t26 -20.5t12 -38.5q0 -28 -37 -28q-24 0 -36 12q-7 8 -7 20q0 18 14 36.5zM287 647.5q29 33.5 70.5 33.5t70.5 -33.5t29 -81t-29 -81.5t-70.5 -34t-70.5 34
t-29 81.5t29 81z" />
    <glyph glyph-name="medicine1" unicode="&#xe6da;" 
d="M957 526h-306v306h-281v-306h-306v-281h306v-306h281v306h306v281z" />
    <glyph glyph-name="neural-network" unicode="&#xe664;" 
d="M512 -102q-99 0 -189 38.5t-155 103.5t-103.5 155t-38.5 189t38.5 189t103.5 155t155 103.5t189 38.5t189 -38.5t155 -103.5t103.5 -155t38.5 -189t-38.5 -189t-103.5 -155t-155 -103.5t-189 -38.5zM512 852q-95 0 -181.5 -37t-149.5 -100t-100 -149.5t-37 -181.5
t37 -181.5t100 -149.5t149.5 -100t181.5 -37t181.5 37t149.5 100t100 149.5t37 181.5t-37 181.5t-100 149.5t-149.5 100t-181.5 37zM759 333h-2l-158 259q15 13 15 34q0 18 -13.5 32t-32 14t-32 -14t-13.5 -32q0 -5 1 -7l-180 -67q-11 17 -35 17q-19 0 -32.5 -13.5
t-13.5 -32.5q0 -15 9 -26.5t23 -15.5l-41 -173q-16 -4 -25.5 -16t-9.5 -28q0 -19 13.5 -32.5t32.5 -13.5q22 0 35 16l168 -94v-1q0 -19 13.5 -32.5t32 -13.5t32.5 13.5t14 32.5v7l178 104q12 -9 26 -9q19 0 32.5 13.5t13.5 32.5q-4 20 -18 33t-33 13v0zM567 649q9 0 16 -7
t7 -16t-7 -16t-16.5 -7t-16 7t-6.5 16q0 10 6.5 16.5t16.5 6.5v0zM531 416l-84 49l102 122q1 0 2 -1t3 -1zM551 382l150 -85l-161 -7zM530 395l-14 -106l-73 -4l-53 113l44 51zM531 599l6 -5l-104 -122l-80 46v7q0 6 -2 7zM344 501l74 -43l-37 -42zM284 525q0 10 7 16.5
t16 6.5t16 -6.5t7 -16t-7 -16.5t-16 -7t-16 7t-7 16v0zM261 243q-9 0 -16 6.5t-7 16t7 16.5t16.5 7t16 -7t6.5 -16.5t-6.5 -16t-16.5 -6.5v0zM286 305q-2 1 -5.5 2.5t-5.5 2.5l41 173q2 1 5.5 2t5.5 1l40 -86zM298 290l78 90l46 -97l-117 -5q-5 12 -7 12v0zM471 162l-164 91
v2l126 7l42 -93zM452 262l60 4l-11 -80q-1 0 -4.5 -1t-5.5 -2zM510 119q-9 0 -16 7t-7 16t7 16t16.5 7t16 -7t6.5 -16q0 -10 -6.5 -16.5t-16.5 -6.5v0zM547 165q-9 12 -23 18l11 83l180 9l4 -11zM720 310l-166 95l23 179q2 0 2 1l157 -256q-13 -10 -16 -19v0zM759 266
q-9 0 -16 6.5t-7 16t7 16.5t16 7t16 -7t7 -16.5t-7 -16t-16 -6.5v0zM759 266z" />
    <glyph glyph-name="xueshengtanxin" unicode="&#xe637;" 
d="M896 740q-79 82 -191.5 82t-191.5 -82q-79 82 -191.5 82t-191.5 -82t-79 -198.5t79 -198.5l383 -397l383 397q79 82 79 198.5t-79 198.5zM327 591q-20 0 -34.5 -14t-14.5 -34t-14 -34.5t-34.5 -14.5t-34.5 14.5t-14 34.5q0 60 42.5 103t103.5 43q20 0 34 -14.5t14 -34.5
t-14 -34.5t-34 -14.5z" />
    <glyph glyph-name="computer" unicode="&#xe622;" 
d="M373 365v-1h279v1q25 5 42 26.5t19 48.5q-2 32 -23 53t-53 22h-1h-1q1 7 2 13q-2 30 -21 49t-49 21q-34 2 -55 -28q-20 26 -55 28q-29 2 -49 -19.5t-21 -50.5q0 -7 1 -13h-8q-31 2 -52.5 -21t-22.5 -54q-2 -29 18.5 -50t49.5 -25v0zM373 365zM879 727h-745v-491h745v491
v0v0zM803 311h-593v340h593v-340v0v0zM803 311zM878 213h-361h-21h-362l-107 -143v-35h959v35zM878 213z" />
    <glyph glyph-name="chemistry" unicode="&#xe6e9;" 
d="M810 -74l-170 201v353h21q14 0 23 9.5t9 23t-9 22.5t-23 9h-53q-13 0 -22.5 -9t-9.5 -23v-397q0 -12 8 -22l131 -157h-406l131 157q8 10 8 22v397q0 14 -9.5 23t-22.5 9h-53q-14 0 -23 -9t-9 -22.5t9 -23t23 -9.5h21v-353l-170 -201q-14 -16 -5.5 -35t28.5 -19h550
q20 0 28.5 19t-5.5 35zM480 576q26 0 45 19t19 45.5t-19 45t-45 18.5t-45 -18.5t-19 -45t19 -45.5t45 -19zM688.5 671q46.5 0 79.5 33t33 79.5t-33 79.5t-79.5 33t-79.5 -33t-33 -79.5t33 -79.5t79.5 -33zM688 832q20 0 34 -14t14 -34t-14 -34t-34 -14t-34 14t-14 34t14 34
t34 14z" />
    <glyph glyph-name="shenjingneike" unicode="&#xe734;" 
d="M877 444q-13 17 -39 52q-22 30 -16 78q22 170 -102 265q-51 39 -144 49q-33 3 -84 4h-5q-7 0 -18.5 -0.5t-44 -5.5t-61 -14.5t-61.5 -31t-53 -51.5q-32 -49 -43.5 -114t-6 -112.5t17.5 -78.5q39 -96 54 -146q7 -26 9.5 -81t-2.5 -68l-0.5 -3t-1.5 -4q-3 -24 -11.5 -48.5
t-21.5 -54t-18 -44.5q-40 -109 -88 -162h497q-32 43 -33 45q-41 44 -23 97q33 96 45 125q5 12 24 16q14 2 58 5q5 0 28 1t35 2q26 2 39 18.5t9 42.5q-6 37 20 53q3 1 4 6t1.5 13.5t1.5 14.5q12 7 4 29q-10 22 -6.5 32t24.5 19q40 15 12 52zM665 602q-14 -17 -36 -15
q-17 0 -31 -17l-43 -53q-5 -6 -7 -14t-1 -13l1 -4v0q3 -17 -8 -31q-9 -11 -24 -12.5t-27 7.5q-19 16 -12 40q4 16 -4 29l-19 26l-1 1q-6 9 -21 13q-11 0 -20 7q-10 8 -11.5 21.5t6.5 23.5q11 14 29 12q9 0 16 6l2 3l1 1.5t2 6t0 9.5q-3 13 6 23q7 9 18.5 10t20.5 -6
q14 -12 8 -30q-2 -8 1 -13l2 -2v0q4 -5 13 -8q6 -1 11 -5q7 -6 8 -15.5t-5 -17t-15.5 -8.5t-16.5 5q-12 10 -7 25q1 6 -2 12l-2 3q-5 5 -12 5h-1q-10 0 -16 -7l-1 -1v0q-6 -8 -5 -17q1 -2 2 -5v0q1 -9 -2 -17q-1 -13 7 -25h1l19 -27q4 -5 10 -8.5t10 -3.5l5 -1v0v0
q14 0 24 10l48 59q11 15 8 32q-4 13 0 25q4 18 -4 32l-30 42q-8 9 -18 14t-16 5l-6 1v0q-10 0 -19 4q-19 5 -38 -6l-71 -52q-10 -8 -15 -19t-5 -17v-7v0q0 -20 -13 -35q-14 -18 -36.5 -20t-40.5 12t-20 37t12 40q11 14 28 18.5t33 -1.5q25 -7 46 7l64 46q2 2 3 2
q19 15 21 39q-1 19 12 34q13 16 33.5 18.5t37.5 -11.5q26 -22 16 -54v0q-10 -22 7 -45l27 -38l1 -1q11 -16 31 -17q14 0 25 -9q14 -11 15.5 -28t-9.5 -30z" />
    <glyph glyph-name="biology1" unicode="&#xe626;" 
d="M566 253l183 83l-198 427l-182 -82zM592 322l-20 43l87 40l20 -44zM637 452l-87 -39l-112 242l88 40zM420 753l-24 52l40 18l24 -51l48 21l-46 99l-135 -61l45 -99zM824 175h-313q-11 0 -18.5 -7.5t-7.5 -18t7.5 -18.5t18.5 -8h59v-99q-84 21 -138.5 86.5t-54.5 149.5
q0 86 58 154l-23 51q-87 -86 -87 -205q0 -122 90.5 -209t218.5 -87q68 0 131 29v16v1v113h59q11 0 18.5 8t7.5 18.5t-7.5 18t-18.5 7.5zM713 28q-39 -12 -79 -12q-2 0 -6.5 0.5t-5.5 0.5v106h91v-95zM822 -76h-481q-112 119 -112 278q0 94 41.5 177t115.5 141l-23 49
q-87 -66 -136.5 -162t-49.5 -205q0 -95 37.5 -180t104.5 -150h503q11 0 18.5 7.5t7.5 18.5t-7.5 18.5t-18.5 7.5z" />
    <glyph glyph-name="seo-marketing-business-geo-tagging-globe-tag" unicode="&#xe619;" 
d="M528 832h-32q-52 -2 -119 -23.5t-110 -49.5q-25 8 -46 9q-65 0 -111 -46.5t-46 -113.5q0 -41 24 -82q-24 -70 -24 -142q0 -119 57.5 -220.5t157 -162t217.5 -65.5h32q118 5 217.5 65.5t157 162t57.5 220.5t-57.5 220.5t-157 162t-217.5 65.5zM426 790q-40 -39 -76 -94
q-18 28 -49 47q60 35 125 47zM220 736q52 -2 89 -39.5t37 -88.5q0 -54 -36 -89l-89 -90l-89 89q-36 41 -36 90q0 54 36 91t88 37zM96 384q0 53 13 96h16l96 -96l37 37q-2 -18 -2 -37q0 -48 10 -96h-157q-13 43 -13 96zM115 256h154q39 -165 157 -278q-109 21 -191.5 96
t-119.5 182zM496 -32h-16q-138 118 -176 288h192v-288zM496 288h-198q-10 48 -10 96q0 33 6 73l23 23h179v-192zM496 512h-150q13 18 22.5 46t9.5 50q0 29 -12 57q47 78 114 135h16v-288zM909 512h-154q-39 165 -157 278q109 -21 191.5 -96t119.5 -182zM528 800h16
q138 -118 176 -288h-192v288zM528 480h198q10 -48 10 -96t-10 -96h-198v192zM544 -32h-16v288h192q-38 -170 -176 -288zM598 -22q118 117 157 278h154q-37 -107 -119.5 -182t-191.5 -96zM758 288q10 48 10 96t-10 96h157q13 -64 13 -96q0 -53 -13 -96h-157zM224 608z
M192 608q0 -13 9.5 -22.5t22.5 -9.5t22.5 9.5t9.5 22.5t-9.5 22.5t-22.5 9.5t-22.5 -9.5t-9.5 -22.5z" />
  </font>
</defs>
</svg>
